<svg xmlns="http://www.w3.org/2000/svg" viewBox="0 0 100 16.45529581194776" xmlns:xlink="http://www.w3.org/1999/xlink" version="1.1"  ><g transform="translate(16.492968856446375 8.22764790597388) scale(0.0822764790597388)" id="horizontalHexagonSvgTemplate"><g fill="#000000"><g transform="translate(-4.7440699126092385 43.377028714107375) scale(1.7339436815092246)" fill="#000000"><g id="line1" fill="#000000"><path d="M31.608 0.936C39.744 0.936 47.088-2.448 52.344-7.848L45.000-14.904C41.688-11.376 36.864-9.072 31.608-9.072C21.240-9.072 13.104-17.496 13.104-27.864C13.104-38.304 21.240-46.728 31.608-46.728C36.792-46.728 41.544-44.496 44.856-40.968L52.200-48.096C46.944-53.424 39.672-56.736 31.608-56.736C15.624-56.736 2.736-43.848 2.736-27.864C2.736-11.952 15.624 0.936 31.608 0.936Z"></path><path d="M82.246-9.072C71.950-9.072 63.814-17.496 63.814-27.864C63.814-38.304 71.950-46.728 82.246-46.728C92.542-46.728 100.750-38.304 100.750-27.864C100.750-17.496 92.542-9.072 82.246-9.072ZM82.246 0.936C98.230 0.936 111.262-11.952 111.262-27.864C111.262-43.848 98.230-56.736 82.246-56.736C66.334-56.736 53.374-43.848 53.374-27.864C53.374-11.952 66.334 0.936 82.246 0.936Z"></path><path d="M132.307 0L141.739 0L162.979-55.656L152.251-55.656L137.131-15.696L121.867-55.656L110.995-55.656Z"></path><path d="M165.665 0L176.105 0L176.105-55.656L165.665-55.656Z"></path><path d="M184.694 0L200.102 0C215.654 0 228.758-11.088 228.758-28.008C228.758-43.488 216.086-55.656 200.678-55.656L184.694-55.656ZM201.038-46.152C210.614-46.152 218.318-38.448 218.318-28.008C218.318-17.568 210.902-9.504 201.110-9.504L194.702-9.504L194.702-46.152Z"></path><path d="M250.092-8.496C244.404-8.496 240.084-13.032 240.084-18.504C240.084-24.264 244.476-28.440 250.092-28.440C255.708-28.440 260.100-24.264 260.100-18.504C260.100-13.032 255.852-8.496 250.092-8.496ZM250.092 0.720C261.828 0.720 269.748-8.208 269.748-18.504C269.748-28.872 261.468-37.656 250.092-37.656C238.716-37.656 230.436-28.872 230.436-18.504C230.436-8.136 238.356 0.720 250.092 0.720Z"></path><path d="M287.842 0.576C291.730 0.576 294.394-0.648 296.626-2.592L296.626 0L306.346 0L306.346-36.792L296.626-36.792L296.626-12.600C295.330-9.936 292.810-8.280 289.714-8.280C285.610-8.280 281.938-11.160 281.938-15.912L281.938-36.792L272.290-36.792L272.290-15.120C272.290-4.824 279.922 0.576 287.842 0.576Z"></path><path d="M308.527-28.440L313.999-28.440L313.999 0L323.575 0L323.575-28.440L329.191-28.440L329.191-36.792L323.575-36.792L323.575-53.136L313.999-46.944L313.999-36.792L308.527-36.792Z"></path><path d="M331.373 0L341.021 0L341.021-56.160L331.373-56.160Z"></path><path d="M363.794-8.496C358.106-8.496 353.786-13.032 353.786-18.504C353.786-24.264 358.178-28.440 363.794-28.440C369.410-28.440 373.802-24.264 373.802-18.504C373.802-13.032 369.554-8.496 363.794-8.496ZM363.794 0.720C375.530 0.720 383.450-8.208 383.450-18.504C383.450-28.872 375.170-37.656 363.794-37.656C352.418-37.656 344.138-28.872 344.138-18.504C344.138-8.136 352.058 0.720 363.794 0.720Z"></path><path d="M403.632-8.496C397.944-8.496 393.624-13.032 393.624-18.504C393.624-24.264 398.016-28.440 403.632-28.440C409.248-28.440 413.640-24.264 413.640-18.504C413.640-13.032 409.392-8.496 403.632-8.496ZM403.632 0.720C415.368 0.720 423.288-8.208 423.288-18.504C423.288-28.872 415.008-37.656 403.632-37.656C392.256-37.656 383.976-28.872 383.976-18.504C383.976-8.136 391.896 0.720 403.632 0.720Z"></path><path d="M450.094-36.792L436.054-21.600L436.054-56.160L426.406-56.160L426.406 0L436.054 0L436.054-9.720L441.094-15.120L451.318 0L462.406 0L447.502-21.888L461.542-36.792Z"></path><path d="M467.683 0.936C470.779 0.936 473.299-1.584 473.299-4.608C473.299-7.776 470.779-10.224 467.683-10.224C464.587-10.224 462.211-7.776 462.211-4.608C462.211-1.584 464.587 0.936 467.683 0.936Z"></path><path d="M477.569 0L487.289 0L487.289-36.792L477.569-36.792ZM482.393-43.992C485.489-43.992 488.009-46.512 488.009-49.536C488.009-52.704 485.489-55.080 482.393-55.080C479.297-55.080 476.993-52.704 476.993-49.536C476.993-46.512 479.297-43.992 482.393-43.992Z"></path><path d="M517.406 0L527.054 0L527.054-21.600C527.054-31.824 519.494-37.224 511.214-37.224C507.254-37.224 504.662-36.072 502.718-34.344L502.718-36.792L492.998-36.792L492.998 0L502.718 0L502.718-24.336C504.590-26.640 506.894-27.936 509.630-27.936C513.806-27.936 517.406-25.056 517.406-20.304Z"></path><path d="M528.660-28.440L534.132-28.440L534.132 0L543.420 0L543.420-28.440L549.396-28.440L549.396-36.792L543.420-36.792L543.420-42.552C543.420-45.936 545.580-47.808 548.244-47.808C550.188-47.808 551.412-47.232 552.708-46.224L556.812-53.064C554.796-54.864 551.772-56.160 547.236-56.160C540.324-56.160 534.132-51.696 534.132-43.488L534.132-36.792L528.660-36.792Z"></path><path d="M568.426-8.496C562.738-8.496 558.418-13.032 558.418-18.504C558.418-24.264 562.810-28.440 568.426-28.440C574.042-28.440 578.434-24.264 578.434-18.504C578.434-13.032 574.186-8.496 568.426-8.496ZM568.426 0.720C580.162 0.720 588.082-8.208 588.082-18.504C588.082-28.872 579.802-37.656 568.426-37.656C557.050-37.656 548.770-28.872 548.770-18.504C548.770-8.136 556.690 0.720 568.426 0.720Z"></path></g></g><g transform="translate(-115.04611882206079 1.4210854715202004e-14) scale(4.929971988795519)" id="logomark"><g fill="#000000"><g transform="translate(-17.325 -20.284090909090907) scale(0.3977272727272727)" id="container"><g fill="#000000"><polygon vector-effect="non-scaling-stroke" transform="translate(44.000000, 51.300001) rotate(90.000000) translate(-44.000000, -51.300001) " points="69 8 94 51.3000014 69 94.6000027 19 94.6000027 -6 51.3000014 19 8"></polygon></g></g><g transform="translate(-9.8 -10) scale(0.03333333333333333)" id="icon"><g fill="#FFFFFF"><path d="M300.01 393.396l-80.447-46.446v-92.922l80.462-46.431 88.047 50.845 15.243-26.401-103.29-59.644-110.95 64.028v128.122l110.935 64.041 103.336-59.635-15.244-26.409z"></path><path d="M533.32 369.191l-40.566-14.768a198.453 198.453 0 0 0 6.789-38.691h43.2v18.967l30.487-.016-.014-68.418-30.488.007v18.973h-43.053a201.432 201.432 0 0 0-6.892-38.698l40.536-14.753 6.476 17.819 28.642-10.428-23.401-64.302-28.642 10.428 6.49 17.834-40.596 14.782a200.615 200.615 0 0 0-19.576-34.061l33.033-27.719 12.192 14.537 23.372-19.598-44.005-52.423-23.343 19.599 12.178 14.529-33.019 27.719a199.39 199.39 0 0 0-30.101-25.24l21.557-37.343 16.419 9.476 15.244-26.401-59.264-34.217-15.243 26.401 16.449 9.498-21.496 37.224a201.431 201.431 0 0 0-36.979-13.479l7.458-42.323 18.683 3.29 5.3-30.026-67.392-11.879-5.3 30.026 18.698 3.297-7.474 42.352c-6.476-.64-12.981-1.072-19.501-1.072-6.669 0-13.264.439-19.821 1.102l-7.48-42.382 18.697-3.297-5.285-30.026-67.406 11.879 5.285 30.026 18.683-3.29 7.48 42.382a201.482 201.482 0 0 0-36.919 13.479l-21.541-37.313 16.412-9.483-15.241-26.401-59.256 34.232 15.244 26.401 16.442-9.498 21.533 37.306a201.25 201.25 0 0 0-30.153 25.255l-32.974-27.659 12.2-14.544-23.357-19.599-43.99 52.423 23.357 19.598 12.2-14.537 32.974 27.674c-3.811 5.307-7.458 10.748-10.755 16.464-3.32 5.753-6.29 11.611-8.977 17.544l-40.365-14.701 6.476-17.797-28.657-10.428-23.402 64.318 28.657 10.428 6.505-17.864 40.543 14.768a199.256 199.256 0 0 0-6.795 38.675l-43.186.015.007-18.966-30.488-.007-.015 68.44h30.487l.008-18.98 43.067-.014c1.012 13.129 3.35 26.08 6.885 38.705L66.728 369.19l-6.49-17.85-28.648 10.437 23.409 64.311 28.642-10.421-6.483-17.835 40.603-14.768a199.606 199.606 0 0 0 19.576 34.031l-33.048 27.719-12.192-14.529-23.357 19.591 43.975 52.431 23.357-19.591-12.192-14.529 33.048-27.719a198.162 198.162 0 0 0 30.101 25.233l-21.571 37.38-16.413-9.483-15.244 26.395 59.249 34.209 15.244-26.408-16.428-9.482 21.497-37.247a201.938 201.938 0 0 0 36.956 13.473l-7.466 42.337-18.653-3.289-5.3 30.025 67.377 11.88 5.299-30.026-18.697-3.29 7.473-42.382c6.468.641 12.966 1.072 19.494 1.072 6.662 0 13.264-.432 19.822-1.102l7.488 42.411-18.676 3.29 5.3 30.026 67.384-11.909-5.299-30.012-18.698 3.305-7.474-42.396a203.295 203.295 0 0 0 36.935-13.487l21.556 37.335-16.42 9.469 15.244 26.408 59.264-34.225-15.244-26.394-16.436 9.483-21.555-37.321a200.717 200.717 0 0 0 30.145-25.247l32.988 27.688-12.191 14.529 23.357 19.591 43.975-52.431-23.357-19.591-12.191 14.545-32.989-27.675c3.812-5.314 7.474-10.778 10.778-16.494 3.305-5.746 6.268-11.611 8.961-17.521l40.373 14.692-6.49 17.835 28.642 10.421 23.417-64.311-28.643-10.42-6.492 17.834zM299.846 470.375c-29.632 0-58.943-7.875-84.764-22.791-81.117-46.834-109.007-150.92-62.167-232.053 30.25-52.4 86.677-84.95 147.266-84.95 29.625 0 58.952 7.882 84.78 22.799 81.117 46.833 108.999 150.921 62.181 232.038-30.265 52.4-86.7 84.957-147.296 84.957z"></path></g></g></g></g></g></g></svg>